<!-- icon666.com - MILLIONS vector ICONS FREE --><svg id="Capa_1" enable-background="new 0 0 512 512" viewBox="0 0 512 512" xmlns="http://www.w3.org/2000/svg"><g><path d="m247.657 202.563c-29.466 0-53.438 23.972-53.438 53.437s23.972 53.437 53.438 53.437c1.434 0 2.851-.074 4.257-.185-12.018-14.459-19.257-33.024-19.257-53.252s7.24-38.792 19.257-53.252c-1.406-.111-2.822-.185-4.257-.185z"></path><path d="m256 78.734c-97.744 0-177.266 79.521-177.266 177.266s79.522 177.266 177.266 177.266 177.266-79.521 177.266-177.266-79.522-177.266-177.266-177.266zm60.094 260.703c-12.191 0-23.768-2.65-34.218-7.37-6.058 2.74-12.498 4.773-19.218 6.001v54.054h-30v-54.062c-11.859-2.163-22.849-6.83-32.399-13.448l-38.247 38.247-21.213-21.213 38.247-38.247c-6.618-9.55-11.285-20.54-13.448-32.399h-54.062v-30h54.062c2.163-11.859 6.83-22.849 13.448-32.399l-38.247-38.247 21.213-21.213 38.247 38.247c9.551-6.618 20.541-11.285 32.399-13.448v-54.062h30v54.054c6.72 1.228 13.16 3.261 19.218 6.001 10.45-4.72 22.027-7.37 34.218-7.37 46.008 0 83.438 37.43 83.438 83.437s-37.43 83.437-83.438 83.437z"></path><path d="m316.094 202.563c-29.465 0-53.437 23.972-53.437 53.437s23.972 53.437 53.437 53.437c29.466 0 53.438-23.972 53.438-53.437s-23.972-53.437-53.438-53.437z"></path><path d="m0 0v512h512v-512zm256 463.266c-114.287 0-207.266-92.979-207.266-207.266s92.979-207.266 207.266-207.266 207.266 92.979 207.266 207.266-92.979 207.266-207.266 207.266z"></path></g></svg>