<!-- icon666.com - MILLIONS vector ICONS FREE --><svg id="Capa_1" enable-background="new 0 0 512 512" viewBox="0 0 512 512" xmlns="http://www.w3.org/2000/svg"><g><path d="m0 0v512h512v-512zm482 482h-452v-452h452z"></path><path d="m256 452c108.075 0 196-87.925 196-196s-87.925-196-196-196-196 87.925-196 196 87.925 196 196 196zm0-362c91.533 0 166 74.467 166 166s-74.467 166-166 166-166-74.467-166-166 74.467-166 166-166z"></path><path d="m182.407 300.525-35.481 35.481 21.213 21.213 35.481-35.481c8.756 5.949 18.76 10.182 29.526 12.249v50.159h30v-50.161c6.005-1.156 11.775-2.977 17.219-5.408 9.852 4.389 20.745 6.85 32.208 6.85 43.796 0 79.427-35.631 79.427-79.427s-35.631-79.427-79.427-79.427c-11.463 0-22.356 2.46-32.208 6.85-5.444-2.431-11.214-4.252-17.219-5.408v-50.161h-30v50.159c-10.766 2.067-20.771 6.3-29.526 12.249l-35.481-35.481-21.213 21.213 35.481 35.481c-5.949 8.755-10.182 18.759-12.249 29.525h-50.158v30h50.159c2.066 10.766 6.299 20.77 12.248 29.525zm179.593-44.525c0 27.254-22.173 49.427-49.427 49.427s-49.427-22.173-49.427-49.427 22.173-49.427 49.427-49.427 49.427 22.173 49.427 49.427zm-113.854-49.427c.763 0 1.521.023 2.276.057-10.8 13.567-17.276 30.721-17.276 49.37s6.476 35.802 17.276 49.37c-.755.035-1.513.057-2.276.057-27.255 0-49.428-22.173-49.428-49.427s22.174-49.427 49.428-49.427z"></path></g></svg>